<?xml version="1.0" standalone="no"?>
<!DOCTYPE svg PUBLIC "-//W3C//DTD SVG 1.1//EN" "http://www.w3.org/Graphics/SVG/1.1/DTD/svg11.dtd">
<svg xmlns="http://www.w3.org/2000/svg"><metadata>This SVG WebFont was generated by YouWorkForThem.
Copyright (c) 2012 by Rui Abreu, Portugal. All rights reserved. Designed by Rui Abreu.</metadata><defs><font horiz-adv-x="1671" id="ywftsvg"><font-face ascent="1620" bbox="-90 -473 2050 2071" cap-height="1483" descent="-428" font-family="" font-stretch="normal" font-weight="400" panose-1="2 11 6 3 3 3 3 2 2 4" underline-position="0" underline-thickness="0" unicode-range="U+000D-FB02" units-per-em="2048" x-height="1008"/><missing-glyph d="M311 1237l269 268l436 -434l-207 -207l207 -205l-207 -206l207 -205l-271 -271l-434 437l205 204l-205 207l205 205z" horiz-adv-x="1327"/><glyph d="M311 1237l269 268l436 -434l-207 -207l207 -205l-207 -206l207 -205l-271 -271l-434 437l205 204l-205 207l205 205z" glyph-name=".notdef" horiz-adv-x="1327"/><glyph glyph-name="glyph1" horiz-adv-x="2"/><glyph glyph-name="glyph2" horiz-adv-x="682"/><glyph glyph-name="space" horiz-adv-x="495" unicode=" "/><glyph d="M186 106.5q0 53.5 38 91.5t91.5 38t91 -38t37.5 -91.5t-37.5 -91.5t-91 -38t-91.5 38t-38 91.5zM246 455l-33 1028h205l-33 -1028h-139z" glyph-name="exclam" horiz-adv-x="626" unicode="!"/><glyph d="M127 969l-23 551h175l-23 -551h-129zM465 969l-23 551h174l-22 -551h-129z" glyph-name="quotedbl" horiz-adv-x="720" unicode="&quot;"/><glyph d="M152 0l131 457h-254l34 125h254l93 319h-254l34 125h254l131 457h132l-132 -457h277l131 457h131l-131 -457h254l-35 -125h-254l-92 -319h254l-35 -125h-254l-131 -457h-131l131 457h-276l-131 -457h-131zM449 582h276l92 319h-276z" glyph-name="numbersign" horiz-adv-x="1265" unicode="#"/><glyph d="M496 -156v254q-195 16 -332 95v202q182 -129 416 -129q123 0 194.5 48t71.5 143q0 29 -8.5 52t-18.5 40.5t-34.5 33t-40 23.5t-52.5 19.5t-54 15.5t-63.5 14.5t-64.5 14.5q-86 20 -145.5 42.5t-117 62.5t-86 101.5t-28.5 145.5q0 154 98.5 247t264.5 111v258h151v-256 q186 -14 326 -94v-194q-186 119 -400 118q-115 0 -183 -44t-68 -132q0 -27 8 -50t18 -39.5t32.5 -31t39 -22.5t51.5 -18.5t52.5 -15.5t61.5 -14t60 -14q88 -20 148.5 -42.5t120 -62.5t90 -104.5t30.5 -152.5q0 -164 -106.5 -259t-280.5 -112v-254h-151z" glyph-name="dollar" horiz-adv-x="1175" unicode="$"/><glyph d="M389 0l967 1483h168l-967 -1483h-168zM469 881q90 0 148.5 69.5t58.5 172t-58.5 172t-148.5 69.5t-148.5 -69.5t-58.5 -172t58.5 -172t148.5 -69.5zM469 739q-158 0 -259 108.5t-101 274.5q0 164 101 273.5t259 109.5t259 -108.5t101 -274.5q0 -164 -101 -273.5 t-259 -109.5zM1444 602q-90 0 -148.5 -69.5t-58.5 -172t58.5 -172t148.5 -69.5t148.5 69.5t58.5 172t-58.5 172t-148.5 69.5zM1444 743q158 0 259 -108.5t101 -274.5q0 -164 -101 -273.5t-259 -109.5t-259.5 109t-101.5 274q0 164 101.5 273.5t259.5 109.5z" glyph-name="percent" horiz-adv-x="1912" unicode="%"/><glyph d="M1116 889h191l-177 -547l336 -338l-2 -4h-233l-176 176q-141 -199 -441 -199q-233 0 -364 122t-131 296q0 231 256 381l49 29l-45 47q-150 154 -150 307.5t108.5 249.5t270.5 96q166 0 271.5 -99t105.5 -247q0 -197 -203 -328l-84 -55l291 -293zM621 145q211 0 299 164 l-375 377l-78 -45q-164 -96 -164 -240q0 -106 85.5 -181t232.5 -75zM414 1157q0 -92 102 -196l64 -66l92 61q129 86 129 199q0 82 -56.5 131t-140.5 49q-86 0 -138 -51t-52 -127z" glyph-name="ampersand" horiz-adv-x="1437" unicode="&amp;"/><glyph d="M127 969l-23 551h175l-23 -551h-129z" glyph-name="quotesingle" horiz-adv-x="382" unicode="'"/><glyph d="M150 542.5q0 309.5 81.5 558.5t212.5 421h183q-137 -180 -222.5 -432t-85.5 -547t85 -547t223 -432h-183q-131 172 -212.5 420.5t-81.5 558z" glyph-name="parenleft" horiz-adv-x="716" unicode="("/><glyph d="M90 -436q137 180 222 432t85 547t-85 546.5t-222 432.5h182q131 -172 213 -421t82 -558.5t-82 -558t-213 -420.5h-182z" glyph-name="parenright" horiz-adv-x="716" unicode=")"/><glyph d="M426 1180l-27 311h138l-27 -311h-84zM563 1077l-24 82l290 123l43 -135zM373 1077l-310 70l43 135l291 -123zM649 723l-164 270l70 49l205 -237zM287 723l-111 82l205 237l70 -49z" glyph-name="asterisk" horiz-adv-x="935" unicode="*"/><glyph d="M526 238v430h-417v147h417v430h152v-430h418v-147h-418v-430h-152z" glyph-name="plus" horiz-adv-x="1204" unicode="+"/><glyph d="M115 -301l114 580h187l-166 -580h-135z" glyph-name="comma" horiz-adv-x="602" unicode=","/><glyph d="M117 485v164h487v-164h-487z" glyph-name="hyphen" horiz-adv-x="720" unicode="-"/><glyph d="M168 112.5q0 55.5 40 95.5t95 40t95 -40t40 -95.5t-40 -95.5t-95 -40t-95 40t-40 95.5z" glyph-name="period" horiz-adv-x="602" unicode="."/><glyph d="M37 -78l688 1639h152l-689 -1639h-151z" glyph-name="slash" horiz-adv-x="913" unicode="/"/><glyph d="M632.5 -23q-231.5 0 -364.5 181q-141 193 -141 584t141 583q133 180 364.5 180t364.5 -180q141 -193 141.5 -584t-141.5 -583q-133 -181 -364.5 -181zM633 158q125 0 205 100q106 137 106 483t-106 484q-80 100 -205 100t-205 -100q-106 -137 -106 -483.5t106 -483.5 q80 -100 205 -100z" glyph-name="zero" horiz-adv-x="1265" unicode="0"/><glyph d="M498 0v1243l-340 -131v186l534 207v-1505h-194z" glyph-name="one" horiz-adv-x="1042" unicode="1"/><glyph d="M49 4l490 588q133 160 190 263t57 206q0 125 -76.5 194.5t-205.5 69.5q-184 0 -342 -145v206q143 119 354 119q203 0 334 -117.5t131 -318.5q0 -141 -70.5 -271t-220.5 -309l-258 -309l2 -4h600v-176h-983z" glyph-name="two" horiz-adv-x="1150" unicode="2"/><glyph d="M123 96v221q168 -160 385 -159q139 0 224 69.5t85 190.5q0 123 -91 190.5t-251 67.5h-135v174h152q133 0 207.5 64.5t74.5 170.5q0 109 -76.5 174.5t-199.5 65.5q-178 0 -324 -117v201q143 96 334 96q201 0 332 -111.5t131 -287.5q0 -119 -62.5 -206t-171.5 -120v-4 q133 -35 204 -132t71 -230q0 -195 -141.5 -316t-360.5 -121q-233 0 -387 119z" glyph-name="three" horiz-adv-x="1136" unicode="3"/><glyph d="M979 1483v-953h266v-172h-266v-358h-193v358h-747l-2 4l764 1121h178zM602 907l-254 -372l2 -5h436v351q0 123 5 303l-5 2q-57 -95 -184 -279z" glyph-name="four" horiz-adv-x="1308" unicode="4"/><glyph d="M1016 446q0 -211 -145.5 -340t-372.5 -129q-217 0 -379 109l16 211q166 -139 365 -139q143 0 232 76.5t89 205.5q0 156 -140 236t-382 80q-45 0 -119 -4l56 731h737l-15 -176h-542l-29 -389q322 -6 475.5 -136.5t153.5 -335.5z" glyph-name="five" horiz-adv-x="1114" unicode="5"/><glyph d="M610 150q129 0 219.5 80.5t90.5 209.5q0 125 -86 208t-220 83q-131 0 -222 -81t-91 -201q0 -119 87 -209t222 -90zM414 819l4 -2q96 78 244 78q190 0 320 -128t130 -321q0 -203 -143.5 -336t-360.5 -133q-219 0 -361.5 135.5t-142.5 354.5q0 104 40 211.5t141 269.5 l331 535h209l-350 -561q-36 -60 -61 -103z" glyph-name="six" horiz-adv-x="1226" unicode="6"/><glyph d="M248 0l549 1307h-699v176h967l2 -4l-618 -1479h-201z" glyph-name="seven" horiz-adv-x="1142" unicode="7"/><glyph d="M121 416q0 131 67.5 228t188.5 138v4q-215 88 -215 314q0 176 127 290.5t329.5 114.5t329.5 -114.5t127 -290.5q0 -225 -215 -314v-4q121 -41 188.5 -138t67.5 -228q0 -190 -137 -314.5t-360.5 -124.5t-360.5 124.5t-137 314.5zM618.5 850q114.5 0 193.5 68.5t79 173 t-78 173t-194.5 68.5t-194.5 -68.5t-78 -173t79 -173t193.5 -68.5zM313 420q0 -119 88 -194.5t217.5 -75.5t217.5 75.5t88 194.5t-88 196.5t-217.5 77.5t-217.5 -77.5t-88 -196.5z" glyph-name="eight" horiz-adv-x="1236" unicode="8"/><glyph d="M592 754q137 0 222 83t85 201q0 117 -87 205t-218 88q-127 0 -218 -81t-91 -210q0 -123 86 -204.5t221 -81.5zM764 643l-4 4q-88 -59 -219 -59q-184 0 -316.5 126t-132.5 320q0 205 144.5 338t363.5 133q217 0 356.5 -132t139.5 -345q0 -119 -44 -224.5t-134 -250.5 l-347 -553h-211z" glyph-name="nine" horiz-adv-x="1200" unicode="9"/><glyph d="M301 764q-55 0 -94 39t-39 94t39 94t94 39t94 -39t39 -94t-39 -94t-94 -39zM168 110.5q0 55.5 39 94.5t94 39t94 -39t39 -94.5t-39 -94.5t-94 -39t-94 39t-39 94.5z" glyph-name="colon" horiz-adv-x="602" unicode=":"/><glyph d="M115 -301l114 580h187l-166 -580h-135zM301 764q-55 0 -94 39t-39 94t39 94t94 39t94 -39t39 -94t-39 -94t-94 -39z" glyph-name="semicolon" horiz-adv-x="602" unicode=";"/><glyph d="M184 688v107l1039 442v-158l-793 -336v-4l793 -336v-157z" glyph-name="less" horiz-adv-x="1406" unicode="&lt;"/><glyph d="M109 877v147h987v-147h-987zM109 459v147h987v-147h-987z" glyph-name="equal" horiz-adv-x="1204" unicode="="/><glyph d="M184 246v157l793 336v4l-793 336v158l1039 -442v-107z" glyph-name="greater" horiz-adv-x="1406" unicode=">"/><glyph d="M217 106.5q0 53.5 38 91.5t91 38t91 -38t38 -91.5t-38 -91.5t-91 -38t-91 38t-38 91.5zM256 391l-20 373q18 -2 53 -2q182 0 294.5 72.5t112.5 212.5q0 123 -82 200.5t-208 77.5q-141 0 -256 -80v197q117 63 264 63q203 0 340 -128t137 -318q0 -186 -132 -310t-335 -139 v-219h-168z" glyph-name="question" horiz-adv-x="956" unicode="?"/><glyph d="M1010 475l20 238q-90 61 -184 61q-109 0 -182 -84q-80 -90 -80 -221q0 -104 56 -170t151 -66q127 0 217 105q-2 16 -2 49q0 35 4 88zM1180 862l-35 -405q-4 -41 -4 -68q0 -74 38 -116t103 -42q82 0 133 71t51 208q0 262 -173 447.5t-455 185.5q-287 0 -460 -185.5 t-173 -455.5q0 -266 173 -451.5t458 -185.5q238 0 421 131l70 -96q-205 -160 -491 -160q-330 0 -548 219t-218 543q0 326 219 546t547 220q326 0 544.5 -218.5t218.5 -527.5q0 -193 -89 -302t-238 -109q-158 0 -228 118h-4q-117 -121 -272 -120q-141 0 -233.5 98t-92.5 256 q0 195 125 319q117 117 289 117q102 0 203 -57z" glyph-name="at" horiz-adv-x="1667" unicode="@"/><glyph d="M10 0l611 1483h186l612 -1483h-209l-166 414h-667l-168 -414h-199zM565 885l-121 -301h533l-121 307q-78 195 -141 366h-4q-60 -161 -146 -372z" glyph-name="A" horiz-adv-x="1429" unicode="A"/><glyph d="M166 0v1483h397q268 0 395 -78q174 -104 175 -303q0 -121 -62.5 -200t-163.5 -114v-4q135 -31 210 -118.5t75 -227.5q0 -221 -170 -340q-139 -98 -463 -98h-393zM360 840h293q121 0 203 58t82 171q0 123 -104 186q-88 51 -297 52h-177v-467zM360 176h211q240 0 330 64 q96 68 96 192q0 121 -91 185.5t-259 64.5h-287v-506z" glyph-name="B" horiz-adv-x="1298" unicode="B"/><glyph d="M84 737q0 324 215 546t557 222q231 0 418 -104v-213q-184 137 -420 137q-252 0 -413.5 -167t-161.5 -416.5t164.5 -416.5t426.5 -167q242 0 426 149v-215q-180 -115 -436 -115q-336 0 -556 216t-220 544z" glyph-name="C" horiz-adv-x="1378" unicode="C"/><glyph d="M166 0v1483h407q324 0 525 -121q158 -96 245 -258t87 -356q0 -184 -77 -341t-218 -257q-213 -150 -611 -150h-358zM360 176h195q287 0 440 98q109 70 174.5 193t65.5 274q0 154 -65.5 274t-172.5 189q-154 102 -446 103h-191v-1131z" glyph-name="D" horiz-adv-x="1505" unicode="D"/><glyph d="M166 0v1483h856v-176h-662v-449h580v-174h-580v-508h680v-176h-874z" glyph-name="E" horiz-adv-x="1128" unicode="E"/><glyph d="M166 0v1483h876v-176h-682v-478h601v-174h-601v-655h-194z" glyph-name="F" horiz-adv-x="1124" unicode="F"/><glyph d="M84 737.5q0 329.5 220 548.5t562 219q256 0 455 -123v-221q-199 164 -459 164q-258 0 -420.5 -168t-162.5 -416q0 -246 160.5 -416.5t428.5 -170.5q170 0 303 69v346h-331v172h526v-614q-217 -150 -514 -150q-330 0 -549 215.5t-219 545z" glyph-name="G" horiz-adv-x="1505" unicode="G"/><glyph d="M166 0v1483h194v-625h807v625h195v-1483h-195v682h-807v-682h-194z" glyph-name="H" horiz-adv-x="1527" unicode="H"/><glyph d="M166 0v1483h194v-1483h-194z" glyph-name="I" horiz-adv-x="526" unicode="I"/><glyph d="M59 20v185q113 -47 211 -47q111 0 148 64.5t37 197.5v1063h194v-1053q0 -233 -78 -330q-100 -123 -297 -123q-98 0 -215 43z" glyph-name="J" horiz-adv-x="815" unicode="J"/><glyph d="M166 0v1483h194v-672l5 -2l647 674h241l-665 -688l723 -795h-254l-692 766l-5 -2v-764h-194z" glyph-name="K" horiz-adv-x="1284" unicode="K"/><glyph d="M166 0v1483h194v-1307h701v-176h-895z" glyph-name="L" horiz-adv-x="1120" unicode="L"/><glyph d="M877 403l-324 463q-68 96 -199 293l-4 -2q4 -176 4 -321v-836h-188v1483h188l527 -754l526 754h186v-1483h-194v836q0 145 4 321l-4 2q-131 -197 -199 -293z" glyph-name="M" horiz-adv-x="1759" unicode="M"/><glyph d="M354 0h-188v1483h184l621 -824q121 -160 256 -346l4 2q-4 258 -4 422v746h188v-1483h-184l-621 823q-121 160 -256 346l-4 -2q4 -258 4 -422v-745z" glyph-name="N" horiz-adv-x="1581" unicode="N"/><glyph d="M82 741.5q0 323.5 216 543.5t537.5 220t537.5 -220t216 -543.5t-216 -544t-537.5 -220.5t-537.5 220.5t-216 544zM276 741.5q0 -245.5 159 -414.5t400.5 -169t400.5 169t159 414.5t-159 414.5t-400.5 169t-400.5 -169t-159 -414.5z" glyph-name="O" unicode="O"/><glyph d="M166 0v1483h387q299 0 438 -78q215 -119 215 -367q0 -123 -54 -219t-146 -151q-88 -53 -203 -68.5t-289 -15.5h-154v-584h-194zM360 758h179q143 0 220 10t134 45q119 70 119 219q0 158 -138 228q-92 47 -337 47h-177v-549z" glyph-name="P" horiz-adv-x="1273" unicode="P"/><glyph d="M82 741q0 324 216 544t537.5 220t537.5 -220t216 -544q0 -260 -144.5 -458.5t-379.5 -270.5v-4q215 -145 473 -237l-190 -115q-268 106 -529 321q-315 6 -526 225.5t-211 538.5zM276 741.5q0 -245.5 159 -414.5t400.5 -169t400.5 169t159 414.5t-159 414.5t-400.5 169 t-400.5 -169t-159 -414.5z" glyph-name="Q" unicode="Q"/><glyph d="M166 0v1483h401q283 0 414 -74q205 -113 205 -348q0 -231 -191 -348q-74 -45 -170 -62l475 -651h-235l-453 633h-252v-633h-194zM360 797h252q199 0 291 67q88 66 88 185q0 141 -121 208q-92 49 -317 50h-193v-510z" glyph-name="R" horiz-adv-x="1323" unicode="R"/><glyph d="M125 94v213q98 -76 220 -113.5t228 -37.5q137 0 219 62.5t82 178.5q0 63 -22.5 107.5t-78.5 75t-95 45t-129 39.5q-29 8 -43 12q-92 27 -154.5 53.5t-127 73.5t-97.5 119.5t-33 169.5q0 195 130 304t349 109q252 0 426 -110v-205q-197 137 -430 137q-129 0 -205.5 -56.5 t-76.5 -166.5q0 -27 6 -51.5t13 -43t23.5 -36t28 -28.5t38 -24.5t41 -20.5t48 -17.5t48 -14.5t53.5 -15t53 -15q76 -20 129 -41t113.5 -55.5t97.5 -77.5t62.5 -109t25.5 -147q0 -201 -135 -316t-361 -115q-251 0 -446 117z" glyph-name="S" horiz-adv-x="1148" unicode="S"/><glyph d="M539 0v1307h-498v176h1190v-176h-498v-1307h-194z" glyph-name="T" horiz-adv-x="1271" unicode="T"/><glyph d="M248 209q-98 152 -98 489v785h194v-764q0 -274 57 -383q94 -178 353 -178q254 0 348 178q55 102 55 375v772h189v-762q0 -184 -19.5 -303t-79.5 -209q-72 -109 -202 -170.5t-300 -61.5t-297.5 61.5t-199.5 170.5z" glyph-name="U" horiz-adv-x="1495" unicode="U"/><glyph d="M582 0l-572 1483h209l316 -832q76 -201 145 -393h4q72 195 150 399l317 826h199l-570 -1483h-198z" glyph-name="V" horiz-adv-x="1359" unicode="V"/><glyph d="M485 0l-460 1483h206l248 -803q63 -207 117 -387h4q37 127 119 389l252 801h143l252 -803q78 -248 119 -387h4q45 156 117 389l247 801h197l-461 -1483h-207l-237 754q-55 176 -105 344h-4q-57 -195 -104 -346l-236 -752h-211z" glyph-name="W" horiz-adv-x="2074" unicode="W"/><glyph d="M-4 0l555 786l-488 697h232l227 -328q88 -127 160 -235h4q96 145 160 237l225 326h217l-485 -697l555 -786h-234l-284 406q-72 100 -168 245h-4q-98 -145 -164 -239l-289 -412h-219z" glyph-name="X" horiz-adv-x="1349" unicode="X"/><glyph d="M575 0v668l-573 815h227l252 -363q143 -209 193 -282h4q59 90 192 284l250 361h219l-569 -813v-670h-195z" glyph-name="Y" horiz-adv-x="1341" unicode="Y"/><glyph d="M1225 0h-1164l-2 4l840 1299l-2 4h-784v176h1126l2 -4l-840 -1299l2 -4h822v-176z" glyph-name="Z" horiz-adv-x="1308" unicode="Z"/><glyph d="M367 -289h274v-147h-444v1958h444v-148h-274v-1663z" glyph-name="bracketleft" horiz-adv-x="737" unicode="["/><glyph d="M725 -78l-688 1639h151l689 -1639h-152z" glyph-name="backslash" horiz-adv-x="913" unicode="\"/><glyph d="M96 -289h275v1663h-275v148h445v-1958h-445v147z" glyph-name="bracketright" horiz-adv-x="737" unicode="]"/><glyph d="M145 741l377 764h133l377 -764h-153l-289 564h-2l-289 -564h-154z" glyph-name="asciicircum" horiz-adv-x="1177" unicode="^"/><glyph d="M0 -184h973v-107h-973v107z" glyph-name="underscore" horiz-adv-x="972" unicode="_"/><glyph d="M494 1153l-226 336h207l158 -336h-139z" glyph-name="grave" horiz-adv-x="1028" unicode="`"/><glyph d="M440 -23q-145 0 -239 72q-106 80 -107 223q0 160 133 246q104 68 283 68q109 0 215 -27v84q0 111 -57 166q-61 55 -187 55q-172 0 -309 -100v180q141 86 336 86q201 0 301 -92q100 -90 100 -264v-428q0 -106 78 -107q31 0 60 15v-154q-45 -18 -99 -18q-137 0 -194 106h-4 q-49 -45 -132.5 -78t-177.5 -33zM473 141q141 0 252 88v189q-90 27 -196.5 26.5t-177 -37t-70.5 -118.5q0 -72 53 -110t139 -38z" glyph-name="a" horiz-adv-x="1089" unicode="a"/><glyph d="M162 0v1565h184v-615l4 -2q127 82 285 82q209 0 350 -143.5t141 -368.5q0 -233 -151.5 -387t-382.5 -154q-121 0 -252 54zM346 205q111 -66 252 -66q152 0 247 104.5t95 264.5q0 154 -90 255t-238 101q-152 0 -266 -94v-565z" glyph-name="b" horiz-adv-x="1218" unicode="b"/><glyph d="M940 244v-197q-127 -70 -301 -70q-240 0 -393.5 147.5t-153.5 373.5q0 231 161 381.5t398 150.5q150 0 273 -63v-191q-135 86 -281 86q-162 0 -263 -104.5t-101 -260t103 -254t267 -98.5q166 1 291 99z" glyph-name="c" horiz-adv-x="1036" unicode="c"/><glyph d="M96 487q0 233 149.5 388t385.5 155q121 0 241 -53l5 2v586h184v-1565h-184v61l-5 2q-123 -86 -282 -86q-209 0 -351.5 141.5t-142.5 368.5zM283 498q0 -154 90 -255.5t241 -101.5q137 0 263 86v576q-123 63 -248 63q-156 0 -251 -104t-95 -264z" glyph-name="d" horiz-adv-x="1222" unicode="d"/><glyph d="M1047 451h-771q20 -145 121 -226.5t252 -81.5q182 0 348 125v-196q-147 -94 -360 -95q-238 0 -391.5 145.5t-153.5 381.5q0 231 146.5 378.5t355.5 147.5q195 0 327 -130t132 -357q0 -55 -6 -92zM590 864q-109 0 -198 -68.5t-111 -199.5h593q-10 137 -94 202.5t-190 65.5 z" glyph-name="e" horiz-adv-x="1153" unicode="e"/><glyph d="M213 0v842h-160v166h160v192q0 215 90 303q86 84 236 84q82 0 151 -20v-166q-70 18 -143 18q-88 0 -119 -50t-31 -142v-219h258v-166h-258v-842h-184z" glyph-name="f" horiz-adv-x="704" unicode="f"/><glyph d="M229 -397v196q158 -104 320 -104q145 0 233 82t88 223v74l-4 2q-115 -78 -274 -78q-209 0 -351.5 142.5t-142.5 361.5q0 221 142.5 374.5t380.5 153.5q137 0 256 -57l178 31v-1000q0 -221 -136.5 -349t-369.5 -128q-173 0 -320 76zM285 514q0 -154 93 -254t240 -100 q150 0 252 82v555q-113 70 -254 69q-150 0 -240.5 -100t-90.5 -252z" glyph-name="g" horiz-adv-x="1218" unicode="g"/><glyph d="M162 0v1565h184v-684l4 -2q152 152 352 151q170 0 269 -110q84 -96 84 -297v-623h-185v588q0 150 -49 205q-57 66 -153 65q-88 0 -175 -47t-147 -121v-690h-184z" glyph-name="h" horiz-adv-x="1212" unicode="h"/><glyph d="M125 1353.5q0 53.5 38 91.5t91 38t91 -38t38 -91.5t-38 -91t-91 -37.5t-91 37.5t-38 91zM162 0v1008h184v-1008h-184z" glyph-name="i" horiz-adv-x="507" unicode="i"/><glyph d="M127 1353.5q0 53.5 38 91.5t91 38t91 -38t38 -91.5t-38 -91t-91 -37.5t-91 37.5t-38 91zM164 -113v1121h184v-1112q0 -193 -69 -273q-82 -96 -248 -96q-66 0 -121 16v166q68 -14 115 -14q82 0 110.5 48t28.5 144z" glyph-name="j" horiz-adv-x="509" unicode="j"/><glyph d="M162 0v1565h184v-1000l4 -2l451 445h235l-461 -451l510 -557h-241l-494 547l-4 -2v-545h-184z" glyph-name="k" horiz-adv-x="1081" unicode="k"/><glyph d="M162 0v1565h184v-1565h-184z" glyph-name="l" horiz-adv-x="507" unicode="l"/><glyph d="M1548 0v596q0 141 -51 201q-53 61 -154 61q-84 0 -167.5 -46t-139.5 -112q2 -23 2 -71v-629h-184v596q0 143 -47 199q-55 63 -154 63q-84 0 -168 -45t-139 -113v-700h-184v1008h184v-123l4 -2q147 147 342 147q98 0 181 -44t128 -130q184 174 383 174q170 0 265 -106 q84 -92 84 -295v-629h-185z" glyph-name="m" horiz-adv-x="1890" unicode="m"/><glyph d="M162 0v1008h184v-127l4 -2q152 152 352 151q170 0 269 -110q84 -96 84 -297v-623h-185v588q0 150 -47 205q-55 66 -161 65q-86 0 -173.5 -47t-142.5 -121v-690h-184z" glyph-name="n" horiz-adv-x="1212" unicode="n"/><glyph d="M92 504q0 223 152.5 374.5t380 151.5t380 -151.5t152.5 -374.5t-152.5 -375t-380 -152t-380 152t-152.5 375zM276 503.5q0 -153.5 99.5 -256t249 -102.5t249 102.5t99.5 256t-99.5 256t-249 102.5t-249 -102.5t-99.5 -256z" glyph-name="o" horiz-adv-x="1249" unicode="o"/><glyph d="M346 31v-482h-184v1459h184v-66l4 -2q127 90 287 90q207 0 347 -146.5t140 -375.5q0 -238 -151.5 -384.5t-374.5 -146.5q-133 0 -248 56zM346 209q127 -70 256 -70q150 0 243 99.5t93 255.5q0 158 -92 264t-240 106q-150 0 -260 -92v-563z" glyph-name="p" horiz-adv-x="1218" unicode="p"/><glyph d="M96 496q0 238 151.5 386t381.5 148q131 0 252 -57l180 31v-1455h-184v506l-5 2q-129 -80 -278 -80q-211 0 -354.5 145t-143.5 374zM283 506q0 -154 92 -260.5t241.5 -106.5t260.5 86v572q-123 70 -254 69q-152 0 -246 -101t-94 -259z" glyph-name="q" horiz-adv-x="1222" unicode="q"/><glyph d="M162 0v1008h184v-148l4 -2q113 158 299 158q35 0 66 -8v-183q-33 8 -72 9q-193 0 -297 -179v-655h-184z" glyph-name="r" horiz-adv-x="751" unicode="r"/><glyph d="M133 59v193q168 -109 385 -109q229 0 230 140q0 25 -7.5 44t-26 33.5t-35.5 23.5t-50 16.5t-53.5 11.5t-63.5 10t-66 10q-168 29 -256 90.5t-88 198.5q2 152 116 230.5t298 78.5q209 0 361 -80v-184q-168 98 -369 98q-219 0 -219 -129q0 -25 7 -43t24.5 -30.5t35 -21.5 t48 -15.5t53 -10.5t62.5 -10t63 -10q82 -14 138 -31.5t108.5 -49.5t79 -85t26.5 -129q0 -164 -122 -243t-302 -79q-221 0 -377 82z" glyph-name="s" horiz-adv-x="1021" unicode="s"/><glyph d="M315 72q-76 86 -75 278v492h-187v166h187v274l184 31v-305h303v-166h-303v-457q0 -113 30.5 -176.5t120.5 -63.5q84 0 152 43v-174q-74 -37 -182 -37q-148 1 -230 95z" glyph-name="t" horiz-adv-x="796" unicode="t"/><glyph d="M240 90q-82 96 -82 301v617h184v-582q0 -152 49 -209q55 -70 160 -70q88 0 172 49.5t143 122.5v689h185v-1008h-185v127l-4 2q-152 -152 -348 -152q-176 0 -274 113z" glyph-name="u" horiz-adv-x="1212" unicode="u"/><glyph d="M469 0l-424 1008h201l186 -455q70 -172 129 -324h4q61 156 135 336l183 443h192l-422 -1008h-184z" glyph-name="v" horiz-adv-x="1120" unicode="v"/><glyph d="M403 0l-350 1008h201l149 -449q45 -137 101 -311h4q47 137 110 311l166 449h131l166 -449q55 -145 111 -311h4q43 143 98 309l150 451h192l-350 -1008h-182l-158 432q-45 121 -98 283h-4q-53 -162 -99 -283l-157 -432h-185z" glyph-name="w" horiz-adv-x="1689" unicode="w"/><glyph d="M819 0l-149 203q-88 119 -156 215h-4q-39 -53 -160 -219l-147 -199h-209l403 535l-356 473h217l109 -148q98 -133 149 -207h4q61 88 150 209l106 146h209l-352 -469l403 -539h-217z" glyph-name="x" horiz-adv-x="1028" unicode="x"/><glyph d="M393 -451h-200l272 560l-420 899h205l176 -381q74 -162 137 -303h4q90 201 138 303l176 381h194z" glyph-name="y" horiz-adv-x="1126" unicode="y"/><glyph d="M903 0h-862l-2 4l551 832l-2 4h-508v168h833l2 -4l-550 -832l2 -4h536v-168z" glyph-name="z" horiz-adv-x="964" unicode="z"/><glyph d="M281 -135v432q0 96 -30 134t-132 38h-51v147h51q102 0 132 38t30 134v433q0 324 301 323q76 0 123 -10v-145q-35 8 -99 8q-88 0 -121.5 -44t-33.5 -153v-401q0 -109 -28 -170.5t-99 -83.5v-4q72 -23 99.5 -84.5t27.5 -169.5v-402q0 -109 33.5 -152.5t121.5 -43.5 q63 0 99 8v-146q-47 -10 -123 -10q-301 0 -301 324z" glyph-name="braceleft" horiz-adv-x="782" unicode="{"/><glyph d="M252 -451v2089h151v-2089h-151z" glyph-name="bar" horiz-adv-x="655" unicode="|"/><glyph d="M332 -115v402q0 109 27.5 170t99.5 84v4q-72 23 -99.5 84t-27.5 170v401q0 109 -34 153t-122 44q-63 0 -98 -8v145q47 10 123 10q301 0 301 -323v-433q0 -96 29.5 -134t132.5 -38h51v-147h-51q-102 0 -132 -38t-30 -134v-432q0 -324 -301 -324q-76 0 -123 10v146 q35 -8 98 -8q88 0 122 43.5t34 152.5z" glyph-name="braceright" horiz-adv-x="782" unicode="}"/><glyph d="M786 592q-96 0 -239 74q-131 68 -199 67q-115 0 -190 -131l-4 2v207q70 80 194 80q96 0 240 -74q131 -68 198 -67q111 0 191 131l4 -2v-207q-74 -80 -195 -80z" glyph-name="asciitilde" horiz-adv-x="1134" unicode="~"/><glyph d="M444 925.5q0 -53.5 -37.5 -91t-91 -37.5t-91.5 37.5t-38 91t38 91.5t91.5 38t91 -38t37.5 -91.5zM385 578l33 -1029h-205l33 1029h139z" glyph-name="exclamdown" horiz-adv-x="626" unicode="¡"/><glyph d="M500 -37v264q-188 41 -302 178.5t-114 327.5q0 195 114.5 335t301.5 183v269h149v-252q150 0 273 -66v-192q-137 90 -281 90q-166 0 -268.5 -104.5t-102.5 -258.5q0 -158 103.5 -256t269.5 -98q170 0 297 106v-198q-123 -72 -291 -76v-252h-149z" glyph-name="cent" horiz-adv-x="1060" unicode="¢"/><glyph d="M164 633v155h108q-72 186 -71 295q0 195 136 308.5t347 113.5q199 0 336 -84v-207q-152 111 -332 111q-129 0 -211 -68.5t-82 -181.5q0 -80 78 -287h381v-155h-334q14 -72 15 -123q0 -188 -132 -330v-4h674v-176h-913v145q78 61 132 156.5t54 200.5q0 59 -20 131h-166z " glyph-name="sterling" horiz-adv-x="1175" unicode="£"/><glyph d="M332 717q0 -123 82 -207t206.5 -84t206.5 84t82 207t-82 207t-206.5 84t-206.5 -84t-82 -207zM184 717q0 137 70 241l-156 156l121 121l154 -154q109 72 248 72q141 0 247 -72l154 154l121 -121l-156 -156q70 -104 70 -241t-70 -242l156 -156l-121 -120l-154 153 q-106 -72 -247 -71q-139 0 -248 71l-154 -153l-121 120l156 156q-70 105 -70 242z" glyph-name="currency" horiz-adv-x="1241" unicode="¤"/><glyph d="M186 829v150h234l-352 504h223l203 -291q143 -209 192 -283h4q59 90 193 285l200 289h217l-354 -504h238v-150h-342l-60 -86v-145h402v-149h-402v-449h-194v449h-402v149h402v143l-62 88h-340z" glyph-name="yen" horiz-adv-x="1370" unicode="¥"/><glyph d="M252 836v802h151v-802h-151zM252 352h151v-803h-151v803z" glyph-name="brokenbar" horiz-adv-x="655" unicode="¦"/><glyph d="M244 -51q158 -102 311 -103q100 0 163.5 45.5t63.5 128.5q0 23 -4 42.5t-16 37t-22.5 30.5t-34 27.5t-37 23.5t-46 22.5t-48 19.5t-56.5 20.5t-55 20.5q-74 29 -126 55.5t-108.5 69.5t-86 102.5t-29.5 133.5q0 201 215 286v4q-119 90 -119 242q0 154 114.5 247t290.5 93 q160 0 289 -74v-184q-141 94 -287 94q-98 0 -160.5 -45t-62.5 -125q0 -29 8.5 -53.5t29 -46t35.5 -34.5t53 -30.5t55.5 -25.5t66.5 -25.5t66 -23.5q78 -29 130 -55.5t108 -69.5t86 -104.5t30 -139.5q0 -209 -213 -281v-4q119 -98 119 -247q0 -156 -114 -248t-296 -92 q-178 0 -313 77v189zM567 793q-25 8 -73 28q-197 -41 -197 -184q0 -23 4 -43.5t16.5 -37.5t22.5 -31.5t32.5 -28t37 -22.5t45 -21.5t45 -18.5t50.5 -18.5t50 -18.5q49 -18 92 -37q184 37 185 185q0 63 -42 109t-91.5 68.5t-147.5 59.5q-19 7 -29 11z" glyph-name="section" horiz-adv-x="1157" unicode="§"/><glyph d="M602 1321q0 47 33 80t80 33t79.5 -33t32.5 -80t-32.5 -80t-79.5 -33t-80 33t-33 80zM201 1321q0 47 32.5 80t79.5 33t80 -33t33 -80t-33 -80t-80 -33t-79.5 33t-32.5 80z" glyph-name="dieresis" horiz-adv-x="1028" unicode="¨"/><glyph d="M68 741.5q0 325.5 220 544.5t547.5 219t548 -219t220.5 -544.5t-220.5 -545t-548 -219.5t-547.5 219.5t-220 545zM201 741.5q0 -274.5 177 -457t457.5 -182.5t457.5 182.5t177 457t-177 456.5t-457.5 182t-457.5 -182t-177 -456.5zM438 748q0 182 123 301.5t311 119.5 q125 0 230 -57v-145q-106 76 -228 75q-129 0 -211.5 -84t-82.5 -208.5t82.5 -205.5t216 -81t235.5 82v-148q-100 -63 -244 -63q-188 0 -310 118t-122 296z" glyph-name="copyright" unicode="©"/><glyph d="M328 821q-88 0 -154 47q-74 55 -74 148q0 102 84 158q66 43 187 43q74 0 133 -15v47q0 135 -150 135q-104 0 -200 -63v131q88 55 217 55q131 0 202 -59q68 -57 68 -172v-272q0 -66 47 -66q20 0 37 10v-110q-29 -14 -70 -15q-90 0 -129 64h-2q-77 -66 -196 -66zM352 932 q88 0 152 53v115q-53 16 -119 16q-150 0 -149 -96q0 -43 32.5 -65.5t83.5 -22.5z" glyph-name="ordfeminine" horiz-adv-x="743" unicode="ª"/><glyph d="M602 952l-338 -448l338 -449h-182l-338 449l338 448h182zM1020 952l-338 -448l338 -449h-182l-338 449l338 448h182z" glyph-name="guillemotleft" horiz-adv-x="1122" unicode="«"/><glyph d="M111 668v147h987v-577h-152v430h-835z" glyph-name="logicalnot" horiz-adv-x="1204" unicode="¬"/><glyph d="M117 485v164h487v-164h-487z" glyph-name="uni00AD" horiz-adv-x="720" unicode="­"/><glyph d="M459 743q-166 0 -274.5 109t-108.5 272.5t108.5 272t274.5 108.5t274.5 -108.5t108.5 -272t-108.5 -272.5t-274.5 -109zM458.5 803q141.5 0 231.5 91t90 230.5t-90 230.5t-231.5 91t-231.5 -91t-90 -230.5t90 -230.5t231.5 -91zM549 918l-88 149h-68v-149h-74v413h148 q66 0 111 -35.5t45 -97.5q0 -88 -91 -121l101 -159h-84zM393 1130h68q86 0 86 68q0 66 -86 66h-68v-134z" glyph-name="registered" horiz-adv-x="917" unicode="®"/><glyph d="M233 1251v140h562v-140h-562z" glyph-name="macron" horiz-adv-x="1028" unicode="¯"/><glyph d="M387 903q-133 0 -221 87t-88 214t88 214t221 87t221 -87t88 -214t-88 -214t-221 -87zM387 1020q80 0 133 54t53 130t-53 130.5t-133 54.5t-133 -54.5t-53 -130.5t53 -130t133 -54z" glyph-name="degree" horiz-adv-x="774" unicode="°"/><glyph d="M526 487v369h-391v148h391v368h152v-368h391v-148h-391v-369h-152zM135 160v147h934v-147h-934z" glyph-name="plusminus" horiz-adv-x="1204" unicode="±"/><glyph d="M39 868l291 355q80 98 113.5 154.5t33.5 111.5q0 63 -44 99t-114 36q-111 0 -215 -90v156q96 78 228 77q129 0 215 -73.5t86 -194.5q0 -139 -162 -330l-137 -161l2 -4h332v-140h-627z" glyph-name="uni00B2" horiz-adv-x="749" unicode="²"/><glyph d="M86 918v161q117 -88 242 -88q78 0 125 36t47 97q0 63 -50.5 98t-142.5 35h-86v127h92q78 0 120 33t42 88.5t-44 88t-114 32.5q-109 0 -200 -63v149q88 55 211 55q131 0 217 -67.5t86 -171.5q0 -66 -38 -118t-101 -73v-4q164 -49 163 -215q0 -119 -92 -193.5t-231 -74.5 q-144 0 -246 68z" glyph-name="uni00B3" horiz-adv-x="727" unicode="³"/><glyph d="M760 1489l-225 -336h-140l158 336h207z" glyph-name="acute" horiz-adv-x="1028" unicode="´"/><glyph d="M354 -451h-192v1459h184v-582q0 -152 49 -209q55 -70 160 -70q88 0 172 49.5t143 122.5v689h185v-1008h-185v127l-4 2q-152 -152 -342 -152q-109 0 -184 48l-4 -2z" glyph-name="uni00B5" horiz-adv-x="1216" unicode="µ"/><glyph d="M489 -451v1192q-156 0 -265 108.5t-109 262.5t109.5 262.5t264.5 108.5h474v-1934h-152v1794h-170v-1794h-152z" glyph-name="paragraph" horiz-adv-x="1167" unicode="¶"/><glyph d="M166 618.5q0 55.5 40 95.5t95 40t95 -40t40 -95.5t-40 -95.5t-95 -40t-95 40t-40 95.5z" glyph-name="periodcentered" horiz-adv-x="602" unicode="·"/><glyph d="M418 -176l74 242l92 -21l-41 -133q182 -41 182 -184q0 -82 -58.5 -131.5t-156.5 -49.5q-90 0 -164 37l31 105q78 -39 131 -39q43 0 70.5 18.5t27.5 52.5q0 93 -188 103z" glyph-name="cedilla" horiz-adv-x="1028" unicode="¸"/><glyph d="M299 864v699l-199 -72v145l355 131v-903h-156z" glyph-name="uni00B9" horiz-adv-x="667" unicode="¹"/><glyph d="M418 821q-156 0 -252 96.5t-96 246t96 245.5t252 96q154 0 251 -96t97 -245.5t-97 -246t-251 -96.5zM418 946q92 0 150.5 61.5t58.5 155.5t-58.5 155.5t-150.5 61.5t-150.5 -61.5t-58.5 -155.5t58.5 -155.5t150.5 -61.5z" glyph-name="ordmasculine" horiz-adv-x="837" unicode="º"/><glyph d="M102 55l338 449l-338 448h183l338 -448l-338 -449h-183zM520 55l338 449l-338 448h182l338 -448l-338 -449h-182z" glyph-name="guillemotright" horiz-adv-x="1122" unicode="»"/><glyph d="M522 -27h-168l977 1510h168zM1649 889v-559h153v-127h-153v-203h-154v203h-455l-2 4l471 682h140zM1395 520l-127 -186l2 -4h225v180q0 59 4 158l-6 2q-35 -56 -98 -150zM334 602v698l-199 -71v145l354 131v-903h-155z" glyph-name="onequarter" horiz-adv-x="1921" unicode="¼"/><glyph d="M1221 4l290 354q82 98 115 154.5t33 112.5q0 63 -44 99t-114 36q-111 0 -215 -90v155q96 78 227 78q129 0 215.5 -73.5t86.5 -194.5q0 -139 -162 -330l-137 -162l2 -4h331v-139h-626zM522 -27h-168l977 1510h168zM334 602v698l-199 -71v145l354 131v-903h-155z" glyph-name="onehalf" horiz-adv-x="2002" unicode="½"/><glyph d="M152 655v162q117 -88 241 -88q78 0 125 36t47 97q0 63 -50 98t-142 35h-86v127h92q78 0 120 33t42 88t-44 88t-114 33q-109 0 -201 -64v150q88 55 211 55q131 0 217 -67.5t86 -171.5q0 -66 -37.5 -118t-101.5 -73v-4q164 -49 164 -215q0 -119 -92 -193.5t-232 -74.5 q-143 -1 -245 67zM625 -27h-168l977 1510h168zM1751 889v-559h154v-127h-154v-203h-154v203h-454l-2 4l471 682h139zM1497 520l-127 -186l2 -4h225v180q0 59 5 158l-7 2q-35 -56 -98 -150z" glyph-name="threequarters" horiz-adv-x="2023" unicode="¾"/><glyph d="M739 925.5q0 -53.5 -37.5 -91t-91 -37.5t-91.5 37.5t-38 91t38 91.5t91.5 38t91 -38t37.5 -91.5zM700 641l21 -373q-18 2 -53 2q-182 0 -295 -72.5t-113 -211.5q0 -123 82 -201t209 -78q141 0 256 80v-197q-117 -63 -264 -63q-203 0 -340 128t-137 318q0 186 132 310.5 t334 138.5v219h168z" glyph-name="questiondown" horiz-adv-x="956" unicode="¿"/><glyph d="M10 0l611 1483h186l612 -1483h-209l-166 414h-667l-168 -414h-199zM565 885l-121 -301h533l-121 307q-78 195 -141 366h-4q-60 -161 -146 -372zM694 1628l-225 336h207l158 -336h-140z" glyph-name="Agrave" horiz-adv-x="1429" unicode="À"/><glyph d="M10 0l611 1483h186l612 -1483h-209l-166 414h-667l-168 -414h-199zM565 885l-121 -301h533l-121 307q-78 195 -141 366h-4q-60 -161 -146 -372zM961 1964l-226 -336h-139l158 336h207z" glyph-name="Aacute" horiz-adv-x="1429" unicode="Á"/><glyph d="M10 0l611 1483h186l612 -1483h-209l-166 414h-667l-168 -414h-199zM565 885l-121 -301h533l-121 307q-78 195 -141 366h-4q-60 -161 -146 -372zM385 1628l231 336h197l231 -336h-153l-176 215l-176 -215h-154z" glyph-name="Acircumflex" horiz-adv-x="1429" unicode="Â"/><glyph d="M10 0l611 1483h186l612 -1483h-209l-166 414h-667l-168 -414h-199zM565 885l-121 -301h533l-121 307q-78 195 -141 366h-4q-60 -161 -146 -372zM700 1724q-94 47 -137 48q-80 0 -166 -99l-4 2v160q63 88 170 88q68 0 166 -49q94 -47 137 -47q80 0 166 98l4 -2v-160 q-63 -88 -170 -88q-68 0 -166 49z" glyph-name="Atilde" horiz-adv-x="1429" unicode="Ã"/><glyph d="M10 0l611 1483h186l612 -1483h-209l-166 414h-667l-168 -414h-199zM565 885l-121 -301h533l-121 307q-78 195 -141 366h-4q-60 -161 -146 -372zM803 1796q0 47 32.5 80t80 33t80 -33t32.5 -80t-32.5 -80t-80 -33t-80 33t-32.5 80zM401 1796q0 47 33 80t80 33t80 -33 t33 -80t-33 -80t-80 -33t-80 33t-33 80z" glyph-name="Adieresis" horiz-adv-x="1429" unicode="Ä"/><glyph d="M10 0l611 1483h186l612 -1483h-209l-166 414h-667l-168 -414h-199zM565 885l-121 -301h533l-121 307q-78 195 -141 366h-4q-60 -161 -146 -372zM714.5 1604q-102.5 0 -171 66.5t-68.5 166.5t68.5 167t171 67t171 -67t68.5 -167t-68.5 -166.5t-171 -66.5zM714.5 1706 q57.5 0 93.5 38t36 93t-36 93t-93.5 38t-93 -38t-35.5 -93t35.5 -93t93 -38z" glyph-name="Aring" horiz-adv-x="1429" unicode="Å"/><glyph d="M10 0l860 1483h942v-176h-636v-449h555v-174h-555v-508h655v-176h-850v414h-520l-240 -414h-211zM772 950l-213 -366h422v338q0 182 4 395h-4q-88 -162 -209 -367z" glyph-name="AE" horiz-adv-x="1918" unicode="Æ"/><glyph d="M688 -176l49 162q-291 41 -472 248.5t-181 502.5q0 324 215 546t557 222q231 0 418 -104v-213q-184 137 -420 137q-252 0 -413.5 -167t-161.5 -416.5t164.5 -416.5t426.5 -167q242 0 426 149v-215q-180 -115 -462 -115l-21 -65q182 -41 182 -184q0 -82 -58 -131.5 t-157 -49.5q-90 0 -164 37l31 105q78 -39 131 -39q43 0 71 18.5t28 52.5q-1 93 -189 103z" glyph-name="Ccedilla" horiz-adv-x="1378" unicode="Ç"/><glyph d="M166 0v1483h856v-176h-662v-449h580v-174h-580v-508h680v-176h-874zM571 1628l-225 336h207l158 -336h-140z" glyph-name="Egrave" horiz-adv-x="1128" unicode="È"/><glyph d="M166 0v1483h856v-176h-662v-449h580v-174h-580v-508h680v-176h-874zM838 1964l-226 -336h-139l158 336h207z" glyph-name="Eacute" horiz-adv-x="1128" unicode="É"/><glyph d="M166 0v1483h856v-176h-662v-449h580v-174h-580v-508h680v-176h-874zM262 1628l232 336h196l232 -336h-154l-176 215l-176 -215h-154z" glyph-name="Ecircumflex" horiz-adv-x="1128" unicode="Ê"/><glyph d="M166 0v1483h856v-176h-662v-449h580v-174h-580v-508h680v-176h-874zM680 1796q0 47 32.5 80t80 33t80 -33t32.5 -80t-32.5 -80t-80 -33t-80 33t-32.5 80zM279 1796q0 47 32.5 80t79.5 33t80 -33t33 -80t-33 -80t-80 -33t-79.5 33t-32.5 80z" glyph-name="Edieresis" horiz-adv-x="1128" unicode="Ë"/><glyph d="M166 0v1483h194v-1483h-194zM242 1628l-226 336h207l158 -336h-139z" glyph-name="Igrave" horiz-adv-x="526" unicode="Ì"/><glyph d="M166 0v1483h194v-1483h-194zM508 1964l-225 -336h-140l158 336h207z" glyph-name="Iacute" horiz-adv-x="526" unicode="Í"/><glyph d="M166 0v1483h194v-1483h-194zM-68 1628l232 336h196l232 -336h-154l-176 215l-176 -215h-154z" glyph-name="Icircumflex" horiz-adv-x="526" unicode="Î"/><glyph d="M166 0v1483h194v-1483h-194zM350 1796q0 47 34 80t79 33t78.5 -33t33.5 -80t-33.5 -80t-78.5 -33t-79 33t-34 80zM-51 1796q0 47 33.5 80t78.5 33t79 -33t34 -80t-34 -80t-79 -33t-78.5 33t-33.5 80z" glyph-name="Idieresis" horiz-adv-x="526" unicode="Ï"/><glyph d="M6 676v160h182v647h408q324 0 524 -121q158 -96 245 -258t87 -356q0 -184 -77 -341t-218 -257q-213 -150 -610 -150h-359v676h-182zM383 176h195q287 0 440 98q109 70 174 193t65 274q0 154 -65.5 274t-171.5 189q-154 102 -447 103h-190v-471h319v-160h-319v-500z" glyph-name="Eth" horiz-adv-x="1527" unicode="Ð"/><glyph d="M354 0h-188v1483h184l621 -824q121 -160 256 -346l4 2q-4 258 -4 422v746h188v-1483h-184l-621 823q-121 160 -256 346l-4 -2q4 -258 4 -422v-745zM776 1724q-94 47 -137 48q-80 0 -166 -99l-4 2v160q63 88 170 88q68 0 166 -49q94 -47 137 -47q80 0 166 98l4 -2v-160 q-63 -88 -170 -88q-68 0 -166 49z" glyph-name="Ntilde" horiz-adv-x="1581" unicode="Ñ"/><glyph d="M82 741.5q0 323.5 216 543.5t537.5 220t537.5 -220t216 -543.5t-216 -544t-537.5 -220.5t-537.5 220.5t-216 544zM276 741.5q0 -245.5 159 -414.5t400.5 -169t400.5 169t159 414.5t-159 414.5t-400.5 169t-400.5 -169t-159 -414.5zM815 1628l-225 336h207l157 -336h-139z " glyph-name="Ograve" unicode="Ò"/><glyph d="M82 741.5q0 323.5 216 543.5t537.5 220t537.5 -220t216 -543.5t-216 -544t-537.5 -220.5t-537.5 220.5t-216 544zM276 741.5q0 -245.5 159 -414.5t400.5 -169t400.5 169t159 414.5t-159 414.5t-400.5 169t-400.5 -169t-159 -414.5zM1081 1964l-225 -336h-139l157 336h207 z" glyph-name="Oacute" unicode="Ó"/><glyph d="M82 741.5q0 323.5 216 543.5t537.5 220t537.5 -220t216 -543.5t-216 -544t-537.5 -220.5t-537.5 220.5t-216 544zM276 741.5q0 -245.5 159 -414.5t400.5 -169t400.5 169t159 414.5t-159 414.5t-400.5 169t-400.5 -169t-159 -414.5zM506 1628l231 336h197l231 -336h-153 l-176 215l-177 -215h-153z" glyph-name="Ocircumflex" unicode="Ô"/><glyph d="M82 741.5q0 323.5 216 543.5t537.5 220t537.5 -220t216 -543.5t-216 -544t-537.5 -220.5t-537.5 220.5t-216 544zM276 741.5q0 -245.5 159 -414.5t400.5 -169t400.5 169t159 414.5t-159 414.5t-400.5 169t-400.5 -169t-159 -414.5zM821 1724q-94 47 -137 48 q-80 0 -166 -99l-4 2v160q63 88 170 88q68 0 166 -49q94 -47 137 -47q80 0 166 98l4 -2v-160q-63 -88 -170 -88q-68 0 -166 49z" glyph-name="Otilde" unicode="Õ"/><glyph d="M82 741.5q0 323.5 216 543.5t537.5 220t537.5 -220t216 -543.5t-216 -544t-537.5 -220.5t-537.5 220.5t-216 544zM276 741.5q0 -245.5 159 -414.5t400.5 -169t400.5 169t159 414.5t-159 414.5t-400.5 169t-400.5 -169t-159 -414.5zM924 1796q0 47 33.5 80t78.5 33t79 -33 t34 -80t-34 -80t-79 -33t-78.5 33t-33.5 80zM522 1796q0 47 34 80t79 33t79 -33t34 -80t-34 -80t-79 -33t-79 33t-34 80z" glyph-name="Odieresis" unicode="Ö"/><glyph d="M279 315l-105 105l324 323l-324 324l105 104l323 -323l324 323l104 -104l-323 -324l323 -323l-104 -105l-324 324z" glyph-name="multiply" horiz-adv-x="1204" unicode="×"/><glyph d="M276 741q0 -227 136 -389l743 873q-139 100 -319 100q-242 0 -401 -169t-159 -415zM82 741q0 324 216 544t538 220q252 0 440 -139l127 150l106 -91l-127 -149q207 -219 207 -535q0 -324 -216 -544t-537 -220q-252 0 -441 140l-127 -150l-106 90l127 150 q-207 219 -207 534zM1395 741q0 227 -135 389l-744 -872q139 -100 320 -100q242 0 400.5 168.5t158.5 414.5z" glyph-name="Oslash" unicode="Ø"/><glyph d="M248 209q-98 152 -98 489v785h194v-764q0 -274 57 -383q94 -178 353 -178q254 0 348 178q55 102 55 375v772h189v-762q0 -184 -19.5 -303t-79.5 -209q-72 -109 -202 -170.5t-300 -61.5t-297.5 61.5t-199.5 170.5zM727 1628l-225 336h207l157 -336h-139z" glyph-name="Ugrave" horiz-adv-x="1495" unicode="Ù"/><glyph d="M248 209q-98 152 -98 489v785h194v-764q0 -274 57 -383q94 -178 353 -178q254 0 348 178q55 102 55 375v772h189v-762q0 -184 -19.5 -303t-79.5 -209q-72 -109 -202 -170.5t-300 -61.5t-297.5 61.5t-199.5 170.5zM993 1964l-225 -336h-139l157 336h207z" glyph-name="Uacute" horiz-adv-x="1495" unicode="Ú"/><glyph d="M248 209q-98 152 -98 489v785h194v-764q0 -274 57 -383q94 -178 353 -178q254 0 348 178q55 102 55 375v772h189v-762q0 -184 -19.5 -303t-79.5 -209q-72 -109 -202 -170.5t-300 -61.5t-297.5 61.5t-199.5 170.5zM418 1628l231 336h197l231 -336h-153l-176 215l-177 -215 h-153z" glyph-name="Ucircumflex" horiz-adv-x="1495" unicode="Û"/><glyph d="M248 209q-98 152 -98 489v785h194v-764q0 -274 57 -383q94 -178 353 -178q254 0 348 178q55 102 55 375v772h189v-762q0 -184 -19.5 -303t-79.5 -209q-72 -109 -202 -170.5t-300 -61.5t-297.5 61.5t-199.5 170.5zM836 1796q0 47 32.5 80t79.5 33t80 -33t33 -80t-33 -80 t-80 -33t-79.5 33t-32.5 80zM434 1796q0 47 33 80t80 33t79.5 -33t32.5 -80t-32.5 -80t-79.5 -33t-80 33t-33 80z" glyph-name="Udieresis" horiz-adv-x="1495" unicode="Ü"/><glyph d="M575 0v668l-573 815h227l252 -363q143 -209 193 -282h4q59 90 192 284l250 361h219l-569 -813v-670h-195zM922 1964l-226 -336h-139l158 336h207z" glyph-name="Yacute" horiz-adv-x="1341" unicode="Ý"/><glyph d="M166 0v1483h194v-289h193q299 0 438 -78q215 -119 215 -366q0 -123 -54 -219.5t-146 -151.5q-88 -53 -203 -68.5t-289 -15.5h-154v-295h-194zM360 469h179q143 0 220 10t134 45q119 70 119 219q0 158 -138 228q-92 47 -337 47h-177v-549z" glyph-name="Thorn" horiz-adv-x="1273" unicode="Þ"/><glyph d="M162 0v1196q0 197 143 305q117 86 287 86q182 0 305 -94t123 -260q0 -104 -53.5 -183t-147.5 -114v-4q172 -39 263.5 -161t91.5 -290q0 -219 -143.5 -361.5t-360.5 -142.5q-106 0 -187 31v170q84 -33 174 -33q147 0 239.5 95.5t92.5 238.5q0 147 -98 242.5t-260 95.5h-84 v160h55q111 0 173.5 64.5t62.5 162.5q0 102 -68 159.5t-178 57.5q-102 0 -166 -53q-80 -68 -80 -188v-1180h-184z" glyph-name="germandbls" horiz-adv-x="1261" unicode="ß"/><glyph d="M440 -23q-145 0 -239 72q-106 80 -107 223q0 160 133 246q104 68 283 68q109 0 215 -27v84q0 111 -57 166q-61 55 -187 55q-172 0 -309 -100v180q141 86 336 86q201 0 301 -92q100 -90 100 -264v-428q0 -106 78 -107q31 0 60 15v-154q-45 -18 -99 -18q-137 0 -194 106h-4 q-49 -45 -132.5 -78t-177.5 -33zM473 141q141 0 252 88v189q-90 27 -196.5 26.5t-177 -37t-70.5 -118.5q0 -72 53 -110t139 -38zM520 1153l-225 336h207l157 -336h-139z" glyph-name="agrave" horiz-adv-x="1089" unicode="à"/><glyph d="M440 -23q-145 0 -239 72q-106 80 -107 223q0 160 133 246q104 68 283 68q109 0 215 -27v84q0 111 -57 166q-61 55 -187 55q-172 0 -309 -100v180q141 86 336 86q201 0 301 -92q100 -90 100 -264v-428q0 -106 78 -107q31 0 60 15v-154q-45 -18 -99 -18q-137 0 -194 106h-4 q-49 -45 -132.5 -78t-177.5 -33zM473 141q141 0 252 88v189q-90 27 -196.5 26.5t-177 -37t-70.5 -118.5q0 -72 53 -110t139 -38zM786 1489l-225 -336h-139l158 336h206z" glyph-name="aacute" horiz-adv-x="1089" unicode="á"/><glyph d="M440 -23q-145 0 -239 72q-106 80 -107 223q0 160 133 246q104 68 283 68q109 0 215 -27v84q0 111 -57 166q-61 55 -187 55q-172 0 -309 -100v180q141 86 336 86q201 0 301 -92q100 -90 100 -264v-428q0 -106 78 -107q31 0 60 15v-154q-45 -18 -99 -18q-137 0 -194 106h-4 q-49 -45 -132.5 -78t-177.5 -33zM473 141q141 0 252 88v189q-90 27 -196.5 26.5t-177 -37t-70.5 -118.5q0 -72 53 -110t139 -38zM211 1153l231 336h197l231 -336h-153l-176 215l-176 -215h-154z" glyph-name="acircumflex" horiz-adv-x="1089" unicode="â"/><glyph d="M440 -23q-145 0 -239 72q-106 80 -107 223q0 160 133 246q104 68 283 68q109 0 215 -27v84q0 111 -57 166q-61 55 -187 55q-172 0 -309 -100v180q141 86 336 86q201 0 301 -92q100 -90 100 -264v-428q0 -106 78 -107q31 0 60 15v-154q-45 -18 -99 -18q-137 0 -194 106h-4 q-49 -45 -132.5 -78t-177.5 -33zM473 141q141 0 252 88v189q-90 27 -196.5 26.5t-177 -37t-70.5 -118.5q0 -72 53 -110t139 -38zM526 1249q-94 47 -137 47q-80 0 -166 -98l-4 2v160q63 88 170 88q68 0 166 -49q94 -47 137 -47q80 0 166 98l4 -2v-160q-63 -88 -170 -88 q-68 0 -166 49z" glyph-name="atilde" horiz-adv-x="1089" unicode="ã"/><glyph d="M440 -23q-145 0 -239 72q-106 80 -107 223q0 160 133 246q104 68 283 68q109 0 215 -27v84q0 111 -57 166q-61 55 -187 55q-172 0 -309 -100v180q141 86 336 86q201 0 301 -92q100 -90 100 -264v-428q0 -106 78 -107q31 0 60 15v-154q-45 -18 -99 -18q-137 0 -194 106h-4 q-49 -45 -132.5 -78t-177.5 -33zM473 141q141 0 252 88v189q-90 27 -196.5 26.5t-177 -37t-70.5 -118.5q0 -72 53 -110t139 -38zM629 1321q0 47 33.5 80t78.5 33t79 -33t34 -80t-34 -80t-79 -33t-78.5 33t-33.5 80zM227 1321q0 47 34 80t79 33t79 -33t34 -80t-34 -80 t-79 -33t-79 33t-34 80z" glyph-name="adieresis" horiz-adv-x="1089" unicode="ä"/><glyph d="M440 -23q-145 0 -239 72q-106 80 -107 223q0 160 133 246q104 68 283 68q109 0 215 -27v84q0 111 -57 166q-61 55 -187 55q-172 0 -309 -100v180q141 86 336 86q201 0 301 -92q100 -90 100 -264v-428q0 -106 78 -107q31 0 60 15v-154q-45 -18 -99 -18q-137 0 -194 106h-4 q-49 -45 -132.5 -78t-177.5 -33zM473 141q141 0 252 88v189q-90 27 -196.5 26.5t-177 -37t-70.5 -118.5q0 -72 53 -110t139 -38zM540.5 1128q-102.5 0 -171 67t-68.5 167t68.5 166.5t171 66.5t171 -66.5t68.5 -166.5t-68.5 -167t-171 -67zM540.5 1231q57.5 0 93.5 38t36 93 t-36 93t-93.5 38t-93 -38t-35.5 -93t35.5 -93t93 -38z" glyph-name="aring" horiz-adv-x="1089" unicode="å"/><glyph d="M1655 451h-758q20 -145 118.5 -226.5t246.5 -81.5q182 0 344 125v-196q-147 -94 -357 -95q-258 0 -409 170q-172 -170 -398 -170q-145 0 -239 72q-109 82 -109 225q0 158 133 244q104 68 283 68q98 0 203 -25v80q0 111 -58 166q-59 55 -182 55q-168 0 -301 -100v182 q139 86 324 86q268 0 354 -164h4q141 164 358 164q190 0 319.5 -131t129.5 -354q0 -57 -6 -94zM1206 864q-111 0 -198.5 -68.5t-108.5 -199.5h584q-4 106 -79 187t-198 81zM528 444q-106 0 -176.5 -37.5t-70.5 -119.5q0 -72 53 -109t137 -37q172 0 295 123q-33 74 -45 154 q-91 26 -193 26z" glyph-name="ae" horiz-adv-x="1761" unicode="æ"/><glyph d="M489 -176l50 162q-199 29 -323 171t-124 341q0 231 161 381.5t398 150.5q150 0 273 -63v-191q-135 86 -281 86q-162 0 -263 -104.5t-101 -260t103 -254t267 -98.5q166 0 291 99v-197q-127 -70 -305 -70l-21 -65q182 -41 183 -184q0 -82 -58.5 -131.5t-156.5 -49.5 q-90 0 -164 37l31 105q78 -39 131 -39q43 0 70.5 18.5t27.5 52.5q-1 93 -189 103z" glyph-name="ccedilla" horiz-adv-x="1036" unicode="ç"/><glyph d="M1047 451h-771q20 -145 121 -226.5t252 -81.5q182 0 348 125v-196q-147 -94 -360 -95q-238 0 -391.5 145.5t-153.5 381.5q0 231 146.5 378.5t355.5 147.5q195 0 327 -130t132 -357q0 -55 -6 -92zM590 864q-109 0 -198 -68.5t-111 -199.5h593q-10 137 -94 202.5t-190 65.5 zM561 1153l-225 336h207l157 -336h-139z" glyph-name="egrave" horiz-adv-x="1153" unicode="è"/><glyph d="M1047 451h-771q20 -145 121 -226.5t252 -81.5q182 0 348 125v-196q-147 -94 -360 -95q-238 0 -391.5 145.5t-153.5 381.5q0 231 146.5 378.5t355.5 147.5q195 0 327 -130t132 -357q0 -55 -6 -92zM590 864q-109 0 -198 -68.5t-111 -199.5h593q-10 137 -94 202.5t-190 65.5 zM827 1489l-225 -336h-139l158 336h206z" glyph-name="eacute" horiz-adv-x="1153" unicode="é"/><glyph d="M1047 451h-771q20 -145 121 -226.5t252 -81.5q182 0 348 125v-196q-147 -94 -360 -95q-238 0 -391.5 145.5t-153.5 381.5q0 231 146.5 378.5t355.5 147.5q195 0 327 -130t132 -357q0 -55 -6 -92zM590 864q-109 0 -198 -68.5t-111 -199.5h593q-10 137 -94 202.5t-190 65.5 zM252 1153l231 336h197l231 -336h-153l-176 215l-176 -215h-154z" glyph-name="ecircumflex" horiz-adv-x="1153" unicode="ê"/><glyph d="M1047 451h-771q20 -145 121 -226.5t252 -81.5q182 0 348 125v-196q-147 -94 -360 -95q-238 0 -391.5 145.5t-153.5 381.5q0 231 146.5 378.5t355.5 147.5q195 0 327 -130t132 -357q0 -55 -6 -92zM590 864q-109 0 -198 -68.5t-111 -199.5h593q-10 137 -94 202.5t-190 65.5 zM670 1321q0 47 33.5 80t78.5 33t79 -33t34 -80t-34 -80t-79 -33t-78.5 33t-33.5 80zM268 1321q0 47 34 80t79 33t79 -33t34 -80t-34 -80t-79 -33t-79 33t-34 80z" glyph-name="edieresis" horiz-adv-x="1153" unicode="ë"/><glyph d="M162 0v1008h184v-1008h-184zM233 1153l-225 336h207l158 -336h-140z" glyph-name="igrave" horiz-adv-x="507" unicode="ì"/><glyph d="M162 0v1008h184v-1008h-184zM500 1489l-226 -336h-139l158 336h207z" glyph-name="iacute" horiz-adv-x="507" unicode="í"/><glyph d="M162 0v1008h184v-1008h-184zM-76 1153l232 336h196l232 -336h-154l-176 215l-176 -215h-154z" glyph-name="icircumflex" horiz-adv-x="507" unicode="î"/><glyph d="M162 0v1008h184v-1008h-184zM342 1321q0 47 34 80t79 33t78.5 -33t33.5 -80t-33.5 -80t-78.5 -33t-79 33t-34 80zM-59 1321q0 47 33.5 80t78.5 33t79 -33t34 -80t-34 -80t-79 -33t-78.5 33t-33.5 80z" glyph-name="idieresis" horiz-adv-x="507" unicode="ï"/><glyph d="M303 1075l-27 127l232 88q-92 66 -213 123l111 123q164 -84 278 -178l217 82l27 -127l-140 -53q158 -162 239 -354.5t81 -381.5q0 -264 -147.5 -405.5t-372.5 -141.5q-229 0 -370.5 142.5t-141.5 361.5q0 217 137 362.5t346 145.5q174 0 279 -98l4 4q-72 164 -219 301z M260 492q0 -150 92 -248.5t240 -98.5q152 0 242 101.5t90 249.5q0 154 -97.5 243.5t-238.5 89.5q-145 0 -236.5 -95t-91.5 -242z" glyph-name="eth" horiz-adv-x="1187" unicode="ð"/><glyph d="M162 0v1008h184v-127l4 -2q152 152 352 151q170 0 269 -110q84 -96 84 -297v-623h-185v588q0 150 -47 205q-55 66 -161 65q-86 0 -173.5 -47t-142.5 -121v-690h-184zM592 1249q-94 47 -137 47q-80 0 -166 -98l-4 2v160q63 88 170 88q68 0 166 -49q94 -47 137 -47 q80 0 166 98l4 -2v-160q-63 -88 -170 -88q-68 0 -166 49z" glyph-name="ntilde" horiz-adv-x="1212" unicode="ñ"/><glyph d="M92 504q0 223 152.5 374.5t380 151.5t380 -151.5t152.5 -374.5t-152.5 -375t-380 -152t-380 152t-152.5 375zM276 503.5q0 -153.5 99.5 -256t249 -102.5t249 102.5t99.5 256t-99.5 256t-249 102.5t-249 -102.5t-99.5 -256zM604 1153l-225 336h207l157 -336h-139z" glyph-name="ograve" horiz-adv-x="1249" unicode="ò"/><glyph d="M92 504q0 223 152.5 374.5t380 151.5t380 -151.5t152.5 -374.5t-152.5 -375t-380 -152t-380 152t-152.5 375zM276 503.5q0 -153.5 99.5 -256t249 -102.5t249 102.5t99.5 256t-99.5 256t-249 102.5t-249 -102.5t-99.5 -256zM870 1489l-225 -336h-139l158 336h206z" glyph-name="oacute" horiz-adv-x="1249" unicode="ó"/><glyph d="M92 504q0 223 152.5 374.5t380 151.5t380 -151.5t152.5 -374.5t-152.5 -375t-380 -152t-380 152t-152.5 375zM276 503.5q0 -153.5 99.5 -256t249 -102.5t249 102.5t99.5 256t-99.5 256t-249 102.5t-249 -102.5t-99.5 -256zM295 1153l231 336h197l231 -336h-153l-176 215 l-176 -215h-154z" glyph-name="ocircumflex" horiz-adv-x="1249" unicode="ô"/><glyph d="M92 504q0 223 152.5 374.5t380 151.5t380 -151.5t152.5 -374.5t-152.5 -375t-380 -152t-380 152t-152.5 375zM276 503.5q0 -153.5 99.5 -256t249 -102.5t249 102.5t99.5 256t-99.5 256t-249 102.5t-249 -102.5t-99.5 -256zM610 1249q-94 47 -137 47q-80 0 -166 -98l-4 2 v160q63 88 170 88q68 0 166 -49q94 -47 137 -47q80 0 166 98l4 -2v-160q-63 -88 -170 -88q-68 0 -166 49z" glyph-name="otilde" horiz-adv-x="1249" unicode="õ"/><glyph d="M92 504q0 223 152.5 374.5t380 151.5t380 -151.5t152.5 -374.5t-152.5 -375t-380 -152t-380 152t-152.5 375zM276 503.5q0 -153.5 99.5 -256t249 -102.5t249 102.5t99.5 256t-99.5 256t-249 102.5t-249 -102.5t-99.5 -256zM713 1321q0 47 32.5 80t79.5 33t80 -33t33 -80 t-33 -80t-80 -33t-79.5 33t-32.5 80zM311 1321q0 47 33 80t80 33t80 -33t33 -80t-33 -80t-80 -33t-80 33t-33 80z" glyph-name="odieresis" horiz-adv-x="1249" unicode="ö"/><glyph d="M487 1180q0 47 34 80.5t81 33.5t81 -33.5t34 -80.5t-34 -81t-81 -34t-81 34t-34 81zM109 668v147h987v-147h-987zM487 303q0 47 34 81t81 34t81 -34t34 -81t-34 -81t-81 -34t-81 34t-34 81z" glyph-name="divide" horiz-adv-x="1204" unicode="÷"/><glyph d="M276 504q0 -125 68 -219l463 528q-86 49 -182 49q-150 0 -249.5 -102t-99.5 -256zM92 504q0 223 152.5 374.5t380.5 151.5q166 0 297 -86l102 117l100 -86l-100 -115q133 -145 133 -356q0 -223 -152.5 -375t-379.5 -152q-166 0 -297 86l-103 -116l-100 86l100 114 q-133 146 -133 357zM973 504q0 125 -68 219l-463 -528q86 -49 183 -50q150 0 249 102.5t99 256.5z" glyph-name="oslash" horiz-adv-x="1249" unicode="ø"/><glyph d="M240 90q-82 96 -82 301v617h184v-582q0 -152 49 -209q55 -70 160 -70q88 0 172 49.5t143 122.5v689h185v-1008h-185v127l-4 2q-152 -152 -348 -152q-176 0 -274 113zM586 1153l-226 336h207l158 -336h-139z" glyph-name="ugrave" horiz-adv-x="1212" unicode="ù"/><glyph d="M240 90q-82 96 -82 301v617h184v-582q0 -152 49 -209q55 -70 160 -70q88 0 172 49.5t143 122.5v689h185v-1008h-185v127l-4 2q-152 -152 -348 -152q-176 0 -274 113zM852 1489l-225 -336h-140l158 336h207z" glyph-name="uacute" horiz-adv-x="1212" unicode="ú"/><glyph d="M240 90q-82 96 -82 301v617h184v-582q0 -152 49 -209q55 -70 160 -70q88 0 172 49.5t143 122.5v689h185v-1008h-185v127l-4 2q-152 -152 -348 -152q-176 0 -274 113zM276 1153l232 336h197l231 -336h-154l-176 215l-176 -215h-154z" glyph-name="ucircumflex" horiz-adv-x="1212" unicode="û"/><glyph d="M240 90q-82 96 -82 301v617h184v-582q0 -152 49 -209q55 -70 160 -70q88 0 172 49.5t143 122.5v689h185v-1008h-185v127l-4 2q-152 -152 -348 -152q-176 0 -274 113zM694 1321q0 47 34 80t79 33t79 -33t34 -80t-34 -80t-79 -33t-79 33t-34 80zM293 1321q0 47 33.5 80 t79 33t79 -33t33.5 -80t-33.5 -80t-79 -33t-79 33t-33.5 80z" glyph-name="udieresis" horiz-adv-x="1212" unicode="ü"/><glyph d="M393 -451h-200l272 560l-420 899h205l176 -381q74 -162 137 -303h4q90 201 138 303l176 381h194zM811 1489l-225 -336h-140l158 336h207z" glyph-name="yacute" horiz-adv-x="1126" unicode="ý"/><glyph d="M162 -451v2016h184v-619l4 -2q129 86 287 86q207 0 348 -145.5t141 -372.5q0 -236 -151.5 -385.5t-378.5 -149.5q-121 0 -246 52l-4 -2v-478h-184zM346 776v-569q121 -68 254 -68q152 0 246 101.5t94 259t-91 261t-241 103.5q-143 0 -262 -88z" glyph-name="thorn" horiz-adv-x="1220" unicode="þ"/><glyph d="M393 -451h-200l272 560l-420 899h205l176 -381q74 -162 137 -303h4q90 201 138 303l176 381h194zM653 1321q0 47 34 80t79 33t79 -33t34 -80t-34 -80t-79 -33t-79 33t-34 80zM252 1321q0 47 33.5 80t79 33t79 -33t33.5 -80t-33.5 -80t-79 -33t-79 33t-33.5 80z" glyph-name="ydieresis" horiz-adv-x="1126" unicode="ÿ"/><glyph d="M414 123q-160 98 -246 257t-86 359q0 387 293 594q211 150 573 150h848v-176h-637v-449h555v-174h-555v-508h656v-176h-875q-323 0 -526 123zM516 279q88 -57 188.5 -80t260.5 -23v1131q-299 -2 -449 -101q-240 -156 -240 -465q0 -304 240 -462z" glyph-name="OE" horiz-adv-x="1902" unicode="Œ"/><glyph d="M1903 451h-754q20 -145 118.5 -226.5t245.5 -81.5q176 0 342 125v-196q-147 -94 -354 -95q-147 0 -263 59.5t-181 168.5h-4q-70 -106 -182.5 -167t-252.5 -61q-227 0 -376.5 151t-149.5 374q0 225 150.5 376.5t378.5 151.5q137 0 248.5 -60.5t181.5 -166.5h4 q63 106 170.5 166.5t234.5 60.5q193 0 322 -130t129 -347q0 -53 -8 -102zM276 505.5q0 -153.5 98.5 -257t248.5 -103.5q147 0 244.5 102.5t97.5 254.5q0 154 -98.5 257t-248.5 103q-147 0 -244.5 -101.5t-97.5 -255zM1456 864q-111 0 -198 -68.5t-107 -199.5h584 q-4 109 -80 188.5t-199 79.5z" glyph-name="oe" horiz-adv-x="2011" unicode="œ"/><glyph d="M575 0v668l-573 815h227l252 -363q143 -209 193 -282h4q59 90 192 284l250 361h219l-569 -813v-670h-195zM764 1796q0 47 33.5 80t79 33t79 -33t33.5 -80t-33.5 -80t-79 -33t-79 33t-33.5 80zM362 1796q0 47 34 80t79 33t79 -33t34 -80t-34 -80t-79 -33t-79 33t-34 80z " glyph-name="Ydieresis" horiz-adv-x="1341" unicode="Ÿ"/><glyph d="M184 1153l232 336h196l232 -336h-154l-176 215l-176 -215h-154z" glyph-name="circumflex" horiz-adv-x="1028" unicode="ˆ"/><glyph d="M500 1249q-94 47 -138 47q-80 0 -165 -98l-4 2v160q63 88 169 88q68 0 166 -49q94 -47 138 -47q80 0 165 98l5 -2v-160q-63 -88 -170 -88q-68 0 -166 49z" glyph-name="tilde" horiz-adv-x="1028" unicode="˜"/><glyph d="M106 494v147h803v-147h-803z" glyph-name="endash" horiz-adv-x="1015" unicode="–"/><glyph d="M74 504v127h1462v-127h-1462z" glyph-name="emdash" horiz-adv-x="1609" unicode="—"/><glyph d="M125 969l160 551h137l-113 -551h-184z" glyph-name="quoteleft" horiz-adv-x="548" unicode="‘"/><glyph d="M127 969l113 551h184l-160 -551h-137z" glyph-name="quoteright" horiz-adv-x="548" unicode="’"/><glyph d="M127 -215l113 551h184l-160 -551h-137z" glyph-name="quotesinglbase" horiz-adv-x="548" unicode="‚"/><glyph d="M125 969l160 551h137l-113 -551h-184zM457 969l159 551h138l-113 -551h-184z" glyph-name="quotedblleft" horiz-adv-x="880" unicode="“"/><glyph d="M127 969l113 551h184l-160 -551h-137zM459 969l112 551h185l-160 -551h-137z" glyph-name="quotedblright" horiz-adv-x="880" unicode="”"/><glyph d="M127 -215l113 551h184l-160 -551h-137zM459 -215l112 551h185l-160 -551h-137z" glyph-name="quotedblbase" horiz-adv-x="880" unicode="„"/><glyph d="M170 608q0 92 65.5 157.5t157.5 65.5t157.5 -65.5t65.5 -157.5t-65.5 -157.5t-157.5 -65.5t-157.5 65.5t-65.5 157.5z" glyph-name="bullet" horiz-adv-x="786" unicode="•"/><glyph d="M168 112.5q0 55.5 40 95.5t95 40t95 -40t40 -95.5t-40 -95.5t-95 -40t-95 40t-40 95.5zM702 112.5q0 55.5 40 95.5t95.5 40t95.5 -40t40 -95.5t-40 -95.5t-95.5 -40t-95.5 40t-40 95.5zM1237 112.5q0 55.5 40 95.5t95 40t95 -40t40 -95.5t-40 -95.5t-95 -40t-95 40 t-40 95.5z" glyph-name="ellipsis" unicode="…"/><glyph d="M602 952l-338 -448l338 -449h-182l-338 449l338 448h182z" glyph-name="guilsinglleft" horiz-adv-x="704" unicode="‹"/><glyph d="M102 55l338 449l-338 448h183l338 -448l-338 -449h-183z" glyph-name="guilsinglright" horiz-adv-x="704" unicode="›"/><glyph d="M35 504v149h153q-4 53 -4 92q0 51 4 97h-153v149h180q63 238 247.5 376t459.5 138q106 0 221 -28v-193q-117 41 -232 41q-178 0 -306 -89t-185 -245h416v-149h-451q-6 -47 -6 -97q0 -35 4 -92h453v-149h-418q55 -162 184 -254t307 -92q145 0 258 47v-191 q-131 -37 -266 -37q-266 0 -445.5 143.5t-242.5 383.5h-178z" glyph-name="Euro" horiz-adv-x="1226" unicode="€"/><glyph d="M229 889v495h-180v99h467v-99h-180v-495h-107zM901 1040l-94 131q-66 94 -94 138l-4 -2q4 -86 4 -152v-266h-105v594h101l192 -266l193 266h102v-594h-106v266q0 66 4 152l-4 2q-29 -43 -95 -138z" glyph-name="trademark" horiz-adv-x="1290" unicode="™"/><glyph d="M213 0v842h-160v166h160v192q0 215 90 303q86 84 236 84q82 0 151 -20v-166q-70 18 -143 18q-88 0 -119 -50t-31 -142v-219h258v-166h-258v-842h-184zM829 1353.5q0 53.5 38 91.5t91.5 38t91 -38t37.5 -91.5t-37.5 -91t-91 -37.5t-91.5 37.5t-38 91zM866 0v1008h185 v-1008h-185z" glyph-name="uniFB01" horiz-adv-x="1212" unicode="ﬁ"/><glyph d="M213 0v842h-160v166h160v192q0 215 90 303q86 84 236 84q82 0 151 -20v-166q-70 18 -143 18q-88 0 -119 -50t-31 -142v-219h258v-166h-258v-842h-184zM866 0v1565h185v-1565h-185z" glyph-name="uniFB02" horiz-adv-x="1212" unicode="ﬂ"/></font>
</defs>
</svg>
